#!OML:ASF E:\Steps\Project 1\Capture day 1\Session 2\Subject.ASF
:FULLY-SPECIFIED
:DEGREES
32
root 8.89463 16.2438 31.5229 -161.594 -1.0028 180.449
lowerback -23.7191 -1.38444 -4.019
upperback -0.0608422 -0.933656 -0.483788
thorax 13.3475 -0.790946 1.4063
lowerneck 1.35375 -3.21036 -4.31518
upperneck -10.3855 -3.29372 8.38654
head -3.416 -1.58041 3.69594
rclavicle 5.46658e-015 6.36111e-015
rhumerus -37.8564 -23.3983 -74.5328
rradius 24.2942
rwrist 4.75502
rhand -10.9779 -52.503
rfingers 7.12502
rthumb 15.0417 -81.9366
lclavicle 5.46658e-015 6.36111e-015
lhumerus -32.0609 22.5292 70.337
lradius 10.0264
lwrist -25.4727
lhand -19.5695 -14.5758
lfingers 7.12502
lthumb 6.75545 15.2964
rfemur -15.534 7.07448 20.2465
rtibia 9.05652
rfoot -21.2568 -6.81719
rtoes -30.2958
lfemur -16.7297 -9.78065 -17.93
ltibia 9.2203
lfoot -9.30015 2.69563
ltoes -41.4833
33
root 8.89846 16.2452 31.521 -161.529 -0.9166 180.396
lowerback -23.8708 -1.39121 -4.15274
upperback -0.0391514 -0.897321 -0.497436
thorax 13.4583 -0.785475 1.4773
lowerneck 1.32124 -3.22049 -4.28955
upperneck -10.3705 -3.30407 8.39681
head -3.40395 -1.58567 3.69334
rclavicle 2.5842e-015 1.27222e-014
rhumerus -37.9473 -23.6143 -74.455
rradius 24.285
rwrist 5.01817
rhand -10.8924 -52.4159
rfingers 7.12502
rthumb 15.1241 -81.8433
lclavicle 2.5842e-015 1.27222e-014
lhumerus -32.3946 22.7876 70.0611
lradius 10.2387
lwrist -25.7511
lhand -19.4369 -14.4747
lfingers 7.12502
lthumb 6.88341 15.3934
rfemur -15.6848 7.27484 20.1422
rtibia 9.14696
rfoot -21.148 -7.03061
rtoes -30.1096
lfemur -16.8669 -9.85607 -17.9467
ltibia 9.37747
lfoot -9.40698 2.81067
ltoes -42.292
34
root 8.91729 16.2496 31.5116 -161.46 -0.581952 180.198
lowerback -24.1353 -1.39944 -4.66839
upperback -0.0166076 -0.751711 -0.526784
thorax 13.632 -0.759314 1.7861
lowerneck 1.36672 -3.2223 -4.2721
upperneck -10.3947 -3.30126 8.42713
head -3.42125 -1.58645 3.70299
rclavicle -2.08724e-015 2.38542e-015
rhumerus -38.1074 -23.8719 -74.3074
rradius 24.2931
rwrist 5.21928
rhand -10.7442 -52.5314
rfingers 7.12502
rthumb 15.2669 -81.948
lclavicle -2.08724e-015 2.38542e-015
lhumerus -32.7901 22.3271 70.1952
lradius 10.9177
lwrist -25.2439
lhand -19.1871 -13.9538
lfingers 7.12502
lthumb 7.12454 15.9062
rfemur -15.8783 8.13083 19.8023
rtibia 9.29888
rfoot -21.019 -7.62824
rtoes -29.859
lfemur -16.9991 -9.68731 -18.0518
ltibia 9.52494
lfoot -9.49435 2.92234
ltoes -42.7415
35
root 8.9152 16.2503 31.5143 -161.407 -0.472262 180.161
lowerback -24.1896 -1.36813 -4.7047
upperback -0.0251528 -0.697515 -0.545924
thorax 13.6488 -0.737753 1.80347
lowerneck 1.41387 -3.21411 -4.26835
upperneck -10.4535 -3.28535 8.42768
head -3.45205 -1.57894 3.7056
rclavicle 1.09332e-014 -1.03368e-014
rhumerus -38.2433 -23.7607 -74.2975
rradius 24.4161
rwrist 5.02077
rhand -10.6029 -52.8343
rfingers 7.12502
rthumb 15.403 -82.2404
lclavicle 1.09332e-014 -1.03368e-014
lhumerus -33.062 21.8976 70.3738
lradius 11.3869
lwrist -24.7253
lhand -19.002 -13.6786
lfingers 7.12502
lthumb 7.30323 16.1754
rfemur -16.0463 8.18532 19.7312
rtibia 9.50771
rfoot -21.0785 -7.65163
rtoes -30.3844
lfemur -17.0824 -9.63925 -18.1189
ltibia 9.57509
lfoot -9.56022 2.89976
ltoes -41.2672
36
root 8.91474 16.2466 31.517 -161.321 -0.432986 180.253
lowerback -24.2831 -1.34548 -4.62452
upperback -0.0205637 -0.689328 -0.511919
thorax 13.7056 -0.731117 1.7982
lowerneck 1.35604 -3.19584 -4.25505
upperneck -10.4766 -3.25652 8.39551
head -3.45155 -1.56153 3.68985
rclavicle 1.39149e-015 -1.59028e-015
rhumerus -38.2885 -23.4967 -74.3925
rradius 24.5422
rwrist 4.65073
rhand -10.6017 -52.718
rfingers 7.12502
rthumb 15.4042 -82.124
lclavicle 1.39149e-015 -1.59028e-015
lhumerus -33.2114 22.2745 70.1278
lradius 11.339
lwrist -25.0377
lhand -18.9964 -14.1224
lfingers 7.12502
lthumb 7.30864 15.7314
rfemur -16.2437 8.28383 19.8134
rtibia 9.66748
rfoot -21.0151 -7.83092
rtoes -29.9627
lfemur -17.2049 -9.62951 -17.9895
ltibia 9.57476
lfoot -9.54844 3.0022
ltoes -40.2085
37
root 8.91481 16.2462 31.5221 -161.345 -0.475087 180.249
lowerback -24.2579 -1.36969 -4.63331
upperback 0.024116 -0.714188 -0.505969
thorax 13.7463 -0.742381 1.80135
lowerneck 1.28505 -3.19892 -4.21782
upperneck -10.544 -3.24457 8.39254
head -3.46266 -1.55218 3.68127
rclavicle -4.17448e-015 -2.8625e-014
rhumerus -38.2682 -23.4238 -74.465
rradius 24.5812
rwrist 4.39435
rhand -10.6625 -52.362
rfingers 7.12502
rthumb 15.3456 -81.7726
lclavicle -4.17448e-015 -2.8625e-014
lhumerus -33.2931 22.5981 69.9112
lradius 11.266
lwrist -25.1739
lhand -18.9155 -14.4661
lfingers 7.12502
lthumb 7.38667 15.385
rfemur -16.2369 8.2952 19.8119
rtibia 9.69272
rfoot -21.287 -7.6801
rtoes -29.691
lfemur -17.1804 -9.85398 -17.9774
ltibia 9.55094
lfoot -9.52514 3.23676
ltoes -40.4492
38
root 8.91115 16.2431 31.5255 -161.296 -0.460869 180.097
lowerback -24.3384 -1.33202 -4.73927
upperback 0.0630684 -0.614184 -0.617567
thorax 13.8307 -0.701999 1.76837
lowerneck 1.26858 -3.28514 -4.04769
upperneck -10.6723 -3.32594 8.43254
head -3.49965 -1.59448 3.66834
rclavicle -1.68967e-015 -1.03368e-014
rhumerus -38.3267 -23.7093 -74.4763
rradius 24.6162
rwrist 4.36043
rhand -10.6488 -52.0352
rfingers 7.12502
rthumb 15.3588 -81.4448
lclavicle -1.68967e-015 -1.03368e-014
lhumerus -33.1915 21.901 70.201
lradius 11.3927
lwrist -24.5193
lhand -18.8734 -14.3277
lfingers 7.12502
lthumb 7.42736 15.5219
rfemur -16.3172 8.11582 19.6082
rtibia 9.73096
rfoot -21.356 -7.42972
rtoes -29.4969
lfemur -17.3056 -9.66305 -18.2033
ltibia 9.69711
lfoot -9.61962 2.9605
ltoes -40.495
